<?xml version="1.0" standalone="no"?>
<!DOCTYPE svg PUBLIC "-//W3C//DTD SVG 20010904//EN"
 "http://www.w3.org/TR/2001/REC-SVG-20010904/DTD/svg10.dtd">
<svg version="1.0" xmlns="http://www.w3.org/2000/svg"
 width="1080.000000pt" height="1080.000000pt" viewBox="0 0 1080.000000 1080.000000"
 preserveAspectRatio="xMidYMid meet">
<metadata>
Created by potrace 1.11, written by Peter Selinger 2001-2013
</metadata>
<g transform="translate(0.000000,1080.000000) scale(0.100000,-0.100000)"
fill="#000000" stroke="none">
<path d="M0 5400 l0 -5400 5400 0 5400 0 0 5400 0 5400 -5400 0 -5400 0 0
-5400z m5040 1614 c158 -16 205 -16 480 -5 168 6 337 17 375 23 92 14 496 3
585 -16 161 -35 184 -48 304 -169 79 -79 196 -223 196 -240 0 -6 20 -40 44
-76 24 -36 58 -100 75 -141 18 -41 39 -88 46 -105 7 -16 23 -64 35 -105 11
-41 25 -84 29 -95 14 -34 42 -126 47 -149 2 -11 19 -59 37 -106 83 -208 77
-182 83 -381 3 -101 9 -197 14 -214 5 -16 18 -82 28 -145 17 -104 18 -173 16
-708 -1 -378 2 -594 8 -598 5 -4 82 -10 171 -16 187 -11 309 0 338 29 18 18
47 67 142 238 63 113 73 125 109 125 29 0 36 -15 19 -48 -5 -9 -16 -48 -26
-87 -9 -38 -32 -107 -51 -153 -19 -45 -34 -86 -34 -91 0 -15 85 -31 164 -31
63 0 79 -3 96 -20 12 -12 18 -25 15 -29 -3 -5 -38 -19 -77 -31 -328 -97 -371
-120 -384 -207 -3 -24 -10 -46 -15 -49 -5 -3 -7 -10 -3 -15 3 -6 -1 -18 -10
-28 -9 -10 -16 -22 -15 -27 3 -19 -1 -33 -15 -46 -7 -8 -21 -29 -30 -47 -15
-29 -21 -32 -49 -27 l-32 5 30 -9 c17 -5 77 -21 135 -35 58 -14 124 -37 146
-50 155 -91 189 -310 68 -444 -79 -88 -183 -117 -319 -87 -38 8 -71 13 -73 11
-2 -2 15 -47 37 -102 22 -54 41 -114 42 -133 2 -20 12 -46 25 -60 22 -25 99
-218 90 -227 -11 -11 -25 11 -57 89 -19 45 -48 96 -65 114 -23 25 -30 40 -26
62 2 20 -16 77 -61 183 -67 160 -89 189 -143 189 -38 0 -248 -91 -275 -120
-20 -20 -33 -26 -60 -23 -24 2 -71 -13 -159 -50 -109 -46 -127 -58 -144 -88
-22 -41 -17 -78 17 -112 14 -14 22 -35 23 -57 1 -44 71 -208 96 -223 13 -9 18
-24 18 -54 0 -34 6 -48 29 -68 21 -19 27 -32 23 -51 -7 -36 65 -212 95 -231
32 -21 100 -12 202 26 46 17 85 30 87 28 8 -7 -184 -95 -212 -98 -58 -4 -81 2
-110 30 -30 29 -104 195 -104 232 0 11 -11 35 -25 53 -16 21 -25 46 -25 68 0
22 -7 41 -19 52 -25 23 -94 181 -96 222 -1 18 -12 42 -23 55 -12 12 -24 39
-28 58 -10 65 -11 66 -19 24 -7 -38 -10 -42 -37 -41 -19 1 -34 -6 -44 -21 -9
-12 -20 -19 -25 -15 -6 3 -16 -2 -23 -12 -8 -10 -20 -15 -29 -11 -9 3 -19 2
-22 -3 -4 -6 -15 -10 -27 -10 -11 0 -33 -9 -48 -20 -16 -11 -35 -17 -43 -14
-9 3 -17 -2 -21 -13 -5 -15 -14 -18 -47 -15 -35 4 -41 2 -36 -11 8 -20 -3 -29
-19 -16 -16 13 -44 5 -75 -22 -15 -13 -31 -18 -48 -14 -15 3 -38 -1 -53 -9
-18 -10 -29 -11 -37 -3 -7 7 -14 7 -24 -2 -8 -6 -22 -9 -31 -5 -9 4 -18 0 -21
-9 -4 -10 -30 -16 -92 -21 -48 -3 -92 -11 -100 -17 -7 -7 -26 -9 -43 -6 -16 4
-32 2 -36 -4 -4 -8 -9 -7 -15 2 -10 17 -86 16 -102 0 -6 -6 -34 -11 -61 -11
-48 1 -52 3 -76 40 -13 22 -28 40 -32 40 -13 0 -9 -17 8 -30 8 -8 20 -22 26
-33 10 -19 7 -19 -40 -15 -28 3 -57 1 -64 -3 -8 -5 13 -9 50 -9 37 0 61 -4 57
-9 -3 -6 11 -15 31 -20 47 -13 105 -67 96 -90 -3 -9 -22 -35 -42 -58 -50 -57
-59 -126 -30 -213 26 -77 25 -87 -7 -104 -16 -8 -37 -25 -47 -37 -13 -16 -21
-19 -24 -11 -2 7 -17 27 -34 45 -16 18 -42 48 -56 67 -15 19 -30 37 -33 40 -4
3 -61 77 -128 164 -67 88 -130 166 -142 174 -18 12 -27 13 -61 1 -22 -7 -52
-22 -67 -33 -18 -14 -16 -9 9 17 19 20 42 37 50 37 8 0 24 7 34 15 12 9 43 15
80 15 53 1 59 2 44 14 -26 19 -137 29 -156 14 -11 -10 -17 -9 -26 2 -7 10 -32
16 -70 17 -40 1 -65 8 -78 20 -19 17 -20 17 -29 0 -12 -21 -29 -22 -29 -2 0
15 -42 31 -58 21 -5 -3 -15 0 -21 8 -6 7 -22 11 -35 9 -13 -3 -27 0 -30 6 -4
6 -19 11 -34 11 -15 0 -67 13 -115 30 -49 17 -97 30 -106 30 -10 0 -30 9 -44
20 -14 11 -30 20 -35 20 -5 0 -15 7 -22 15 -7 8 -23 15 -36 15 -49 0 -117 25
-139 52 -12 14 -35 28 -51 30 -19 2 -33 11 -39 26 -9 21 -15 23 -50 17 -36 -5
-45 -2 -80 28 -22 19 -52 37 -67 41 -16 3 -28 13 -28 20 0 8 -5 16 -10 18 -6
2 4 18 23 36 30 29 37 32 61 22 69 -26 147 -6 214 55 34 30 44 35 61 26 38
-21 115 -13 172 17 88 45 140 140 138 247 l-2 50 -7 -60 c-17 -150 -108 -245
-235 -245 -31 0 -66 5 -77 11 -17 9 -26 6 -57 -25 -37 -36 -104 -66 -148 -66
-13 0 -40 7 -59 15 -36 15 -36 15 -82 -25 -26 -23 -66 -46 -95 -55 -63 -19
-66 -19 -123 1 -45 15 -47 15 -73 -9 -71 -65 -173 -104 -242 -93 -31 5 -46 1
-85 -23 -84 -54 -176 -61 -241 -17 -49 32 -63 67 -89 231 l-6 40 -19 -23 c-35
-44 -42 -95 -28 -210 l13 -105 -29 -24 c-22 -20 -36 -24 -63 -19 -39 6 -58 27
-67 74 -3 17 -8 32 -11 32 -3 0 -24 -16 -47 -35 -22 -19 -50 -35 -61 -35 -15
0 -3 18 55 79 41 43 77 79 81 80 3 0 10 -29 13 -66 8 -77 17 -93 52 -93 33 0
38 21 26 120 -17 131 8 229 67 260 43 23 62 -9 79 -133 6 -43 18 -91 26 -106
20 -39 77 -65 123 -56 42 8 123 47 140 68 10 11 28 13 75 10 83 -7 149 21 212
88 l46 49 28 -21 c35 -26 98 -35 143 -20 33 11 128 95 128 114 0 4 13 -1 30
-13 39 -27 89 -35 133 -21 41 14 95 65 103 98 8 29 10 29 45 -2 46 -38 90 -42
152 -12 89 44 132 141 110 250 -10 48 -10 48 21 61 55 23 97 66 94 95 -4 38
-28 36 -72 -4 -48 -44 -80 -53 -105 -31 -52 47 -145 40 -198 -16 -47 -50 -64
-92 -73 -182 -5 -46 -15 -99 -23 -118 -31 -73 -106 -100 -151 -54 l-24 23 30
99 c24 79 31 125 35 226 9 195 -18 268 -99 268 -50 0 -81 -31 -102 -101 -30
-100 -14 -296 35 -436 23 -64 23 -64 4 -100 -42 -76 -128 -105 -182 -59 -27
24 -28 24 -14 72 35 124 40 148 51 238 22 188 -17 306 -101 306 -36 0 -84 -42
-101 -88 -8 -24 -13 -82 -12 -162 1 -130 17 -225 53 -306 20 -43 20 -43 -3
-76 -33 -50 -110 -98 -158 -98 -39 0 -40 0 -26 23 42 63 61 184 37 230 -26 50
-51 67 -97 67 -38 0 -50 -5 -82 -38 -29 -29 -40 -49 -45 -84 -9 -60 9 -143 40
-184 14 -18 25 -35 25 -37 0 -10 -91 -47 -113 -47 -39 0 -56 30 -67 116 -6 43
-15 94 -21 111 -14 45 -53 73 -99 73 l-38 0 14 47 c39 128 -3 243 -87 243 -53
0 -94 -37 -109 -99 -11 -47 -7 -124 16 -339 l5 -52 -62 -66 c-63 -65 -125
-111 -136 -100 -3 3 31 44 76 91 44 48 81 92 81 99 0 6 -7 66 -15 131 -19 153
-19 226 0 273 57 136 205 150 266 26 18 -39 21 -58 17 -130 -4 -76 -3 -84 13
-84 10 0 34 -14 54 -31 39 -34 65 -104 65 -175 0 -63 14 -94 40 -87 30 8 33
19 15 53 -27 53 -35 131 -20 196 11 48 22 66 59 101 43 41 48 43 107 43 58 0
64 -2 99 -38 57 -57 73 -135 46 -225 -13 -43 -13 -46 3 -38 9 5 26 20 39 34
l24 25 -25 78 c-14 44 -30 122 -36 174 -6 52 -13 111 -15 130 -3 19 -3 -13 -1
-72 l3 -108 -40 38 c-91 84 -148 148 -148 166 0 14 -5 17 -21 13 -13 -4 -22 0
-26 11 -4 9 -24 38 -45 63 -21 26 -38 52 -38 57 0 6 -8 17 -18 24 -20 14 -47
56 -47 74 0 6 -12 22 -27 35 -15 14 -30 38 -34 55 -4 16 -12 35 -17 43 -6 7
-16 22 -22 34 -5 11 -17 23 -25 27 -8 4 -34 17 -57 29 -23 12 -71 28 -105 36
-56 12 -250 60 -350 86 -79 21 -24 59 85 59 71 0 137 18 137 37 0 8 -6 26 -14
42 -42 80 -104 315 -93 346 17 43 60 3 122 -113 86 -160 137 -248 154 -265 29
-29 148 -39 332 -28 160 9 196 18 185 48 -3 8 -6 278 -6 601 -1 615 -3 587 44
837 9 48 15 140 16 233 0 133 3 157 20 189 11 21 20 43 20 50 0 7 16 54 36
104 20 51 38 105 41 120 2 16 11 41 19 57 7 15 14 33 14 39 0 23 81 263 91
268 5 4 9 13 9 21 0 34 125 259 202 364 18 24 81 92 139 150 104 104 189 165
252 181 53 14 576 2 767 -17z m-2314 -1965 c3 -5 12 -9 20 -9 17 0 55 -31 109
-87 23 -24 46 -43 51 -43 6 0 19 -9 29 -20 16 -18 17 -32 12 -127 -8 -124 -18
-168 -38 -168 -8 0 -34 34 -59 76 -25 41 -61 97 -81 125 -62 87 -119 189 -119
216 0 15 7 33 15 41 15 15 50 12 61 -4z m5419 -23 c8 -41 -11 -82 -105 -221
-36 -55 -80 -124 -96 -152 -40 -73 -59 -70 -73 10 -17 99 -14 129 22 198 35
70 137 179 167 179 10 0 22 5 25 10 3 6 17 10 30 10 19 0 25 -7 30 -34z
m-4154 -1748 c20 -48 17 -215 -6 -313 l-18 -80 -14 33 c-20 50 -36 185 -31
271 7 115 40 157 69 89z m-309 -75 c24 -58 9 -326 -22 -382 -10 -19 -26 36
-41 139 -12 82 -6 218 11 250 15 28 38 25 52 -7z m722 -115 c38 -17 57 -53 63
-117 8 -86 -35 -154 -97 -154 -96 0 -134 171 -55 250 36 36 50 39 89 21z
m-1501 -121 c6 -39 -5 -114 -29 -193 l-19 -59 -6 65 c-13 126 -10 207 7 225
21 21 40 5 47 -38z m477 -173 c6 -14 10 -40 9 -57 0 -40 -30 -119 -46 -124
-33 -11 -59 139 -33 188 16 29 58 25 70 -7z m4229 -131 c31 -26 38 -84 15
-117 -24 -33 -30 -32 -49 3 l-15 30 -64 -27 c-71 -29 -74 -37 -40 -104 20 -39
17 -82 -6 -103 -28 -25 -38 -13 -84 94 -39 92 -44 122 -21 141 13 11 222 99
236 100 4 0 16 -8 28 -17z m-337 -140 c10 -9 18 -22 18 -30 0 -7 4 -21 9 -31
30 -58 42 -101 34 -117 -6 -10 -50 -34 -99 -55 -79 -33 -89 -40 -86 -61 1 -13
6 -27 10 -30 4 -4 47 9 96 28 48 19 90 32 93 30 7 -8 -120 -118 -159 -138 -65
-33 -75 -28 -114 57 -55 120 -52 126 83 180 52 21 73 34 73 47 0 31 -26 29
-115 -8 -90 -37 -119 -38 -130 -5 -11 36 12 55 127 102 128 53 135 54 160 31z
m-503 -1139 c30 -25 62 -55 70 -67 9 -15 3 -12 -20 9 -34 32 -129 98 -129 91
0 -2 13 -30 29 -63 48 -97 46 -115 -3 -25 -25 45 -46 87 -46 92 0 23 48 5 99
-37z m-340 -129 c55 -49 98 -92 96 -94 -5 -4 -100 74 -162 133 -51 48 -57 30
-10 -28 62 -77 109 -147 104 -153 -8 -7 -67 30 -151 97 -39 31 -77 59 -83 64
-25 15 -12 -14 30 -66 48 -60 89 -122 64 -98 -36 36 -137 166 -137 178 0 33
34 21 98 -34 73 -64 137 -114 147 -114 7 0 -34 56 -93 127 -43 52 -51 89 -17
81 8 -2 59 -43 114 -93z"/>
<path d="M3885 5844 c-45 -10 -101 -28 -115 -39 -8 -6 -27 -17 -43 -25 -38
-19 -154 -144 -174 -188 -43 -95 -44 -158 -4 -189 24 -19 85 -16 112 6 57 44
189 109 243 121 94 19 335 -6 521 -55 28 -7 96 -25 151 -40 111 -30 154 -29
198 6 17 14 26 30 26 49 0 16 5 32 10 35 24 15 4 127 -27 152 -74 59 -312 127
-573 163 -64 9 -286 12 -325 4z"/>
<path d="M6610 5844 c-235 -28 -533 -117 -587 -176 -27 -29 -40 -105 -25 -145
6 -16 13 -40 16 -55 5 -20 17 -30 51 -43 48 -19 73 -17 190 16 204 57 301 76
461 90 162 14 222 4 311 -52 34 -21 65 -39 68 -39 4 0 21 -11 39 -25 18 -14
48 -25 70 -27 32 -2 43 3 63 27 21 24 24 36 20 72 -12 109 -138 263 -263 323
-68 33 -71 33 -224 36 -85 1 -171 0 -190 -2z"/>
<path d="M4145 5209 c-185 -23 -396 -142 -488 -273 -26 -37 -47 -71 -47 -76 0
-5 -6 -13 -13 -17 -16 -10 -36 -125 -30 -170 3 -17 13 -39 23 -48 17 -15 19
-14 25 17 7 31 46 125 66 158 4 8 16 29 24 46 15 30 85 106 139 151 15 12 63
40 109 62 66 32 100 41 175 50 60 6 102 7 118 1 14 -6 48 -10 75 -10 67 0 198
-47 275 -98 61 -41 158 -139 175 -176 5 -12 13 -28 19 -36 28 -45 70 -146 70
-171 0 -31 14 -39 24 -13 3 9 6 35 6 60 0 38 -6 60 -39 149 -59 155 -154 263
-284 326 -121 57 -290 85 -422 68z"/>
<path d="M6484 5209 c-100 -9 -150 -22 -229 -60 -146 -69 -225 -156 -296 -324
-32 -78 -39 -104 -39 -151 0 -58 14 -71 31 -26 41 111 97 200 175 278 73 73
103 93 199 134 71 31 101 39 157 41 35 2 68 7 75 12 16 11 193 -10 241 -29
186 -74 317 -208 374 -382 11 -32 21 -63 23 -70 4 -10 9 -10 26 -2 20 11 21
18 15 88 -7 104 -6 101 -47 157 -19 28 -45 66 -57 86 -41 68 -191 166 -330
214 -66 23 -185 46 -222 43 -8 0 -51 -4 -96 -9z"/>
<path d="M4200 5084 c-284 -55 -422 -377 -264 -620 40 -60 93 -105 174 -145
52 -26 69 -29 148 -29 69 0 100 5 133 20 114 53 177 111 223 204 34 71 36 80
36 176 0 90 -3 107 -29 165 -34 74 -113 159 -176 189 -22 10 -47 22 -57 27
-20 10 -154 19 -188 13z m-34 -177 c61 -53 14 -156 -65 -143 -62 10 -88 67
-58 126 11 23 40 37 79 39 9 1 29 -10 44 -22z m328 -481 c-7 -25 -43 -56 -64
-56 -48 0 -40 53 12 74 41 17 61 11 52 -18z"/>
<path d="M6454 5081 c-58 -15 -129 -55 -176 -99 -208 -194 -152 -539 107 -661
58 -28 75 -31 158 -31 84 1 98 4 154 33 165 85 238 200 237 372 -1 78 -5 99
-31 157 -65 140 -185 223 -338 232 -44 3 -94 2 -111 -3z m-40 -161 c14 -5 32
-23 41 -41 44 -84 -76 -160 -141 -88 -34 38 -14 113 36 132 23 8 36 8 64 -3z
m348 -476 c21 -21 -39 -75 -74 -67 -24 6 -22 19 7 48 22 23 54 32 67 19z"/>
<path d="M6340 3471 c-157 -48 -230 -221 -154 -362 34 -62 88 -104 158 -124
28 -8 258 -62 511 -120 253 -58 489 -113 524 -122 62 -15 67 -15 131 6 57 19
74 21 108 12 41 -11 85 -53 97 -91 4 -11 10 -18 15 -15 5 3 48 -4 96 -15 73
-17 97 -19 138 -10 124 26 206 127 206 250 0 76 -26 135 -83 187 -46 43 -85
59 -217 87 -36 8 -99 22 -140 31 -41 10 -91 21 -110 25 -19 4 -69 16 -110 25
-41 9 -93 21 -115 26 -22 5 -67 15 -100 23 -33 7 -114 26 -180 41 -66 15 -145
33 -175 40 -30 7 -107 25 -170 39 -63 14 -162 37 -220 51 -107 25 -165 29
-210 16z m77 -57 c22 -6 23 -11 25 -148 l3 -141 47 90 c75 146 81 155 105 155
12 0 25 -6 30 -12 4 -7 10 -76 13 -153 l5 -140 64 133 c35 72 69 132 75 131 6
-1 21 -4 33 -7 22 -7 19 -14 -68 -178 -88 -168 -91 -172 -117 -165 -33 9 -41
43 -41 184 -1 53 -5 97 -9 97 -4 0 -37 -54 -72 -119 -60 -112 -67 -120 -90
-114 -14 3 -28 8 -31 12 -4 3 -9 90 -13 194 -6 198 -7 194 41 181z m499 -114
c11 0 14 -27 14 -147 0 -83 4 -143 9 -138 4 6 34 60 66 120 32 61 61 114 65
118 4 4 19 5 34 1 l26 -6 1 -107 c0 -58 3 -124 7 -145 l7 -39 62 131 c61 130
62 131 90 123 35 -10 33 -19 -15 -107 -21 -38 -58 -108 -82 -157 -30 -57 -50
-85 -58 -82 -8 3 -22 5 -33 5 -17 0 -19 8 -20 88 -1 48 -4 112 -8 142 l-6 55
-39 -70 c-106 -190 -95 -176 -124 -169 -15 4 -28 8 -30 9 -1 1 -5 89 -9 195
-6 181 -5 193 11 187 10 -4 24 -7 32 -7z m573 -135 c120 -29 170 -91 158 -196
-11 -91 -62 -156 -137 -176 -24 -6 -188 23 -203 36 -4 4 11 85 33 181 22 95
40 175 40 177 0 2 8 2 18 0 9 -3 50 -13 91 -22z m448 -105 c84 -38 121 -165
39 -134 -9 3 -16 17 -16 29 0 33 -53 75 -95 75 -70 0 -136 -103 -120 -187 16
-85 115 -124 171 -68 26 26 40 30 63 16 11 -7 10 -13 -4 -34 -45 -70 -174 -74
-245 -9 -82 75 -51 263 50 314 45 23 104 22 157 -2z"/>
<path d="M7425 3098 c-3 -13 -16 -68 -30 -123 -13 -55 -20 -104 -16 -108 5 -5
36 -11 69 -14 58 -5 63 -4 91 24 39 39 57 105 42 153 -13 46 -35 65 -86 79
-56 15 -64 14 -70 -11z"/>
<path d="M4118 3125 c-5 -108 -12 -160 -32 -229 -15 -49 -25 -94 -23 -100 6
-17 43 111 57 194 6 41 10 120 8 175 l-3 100 -7 -140z"/>
<path d="M4701 3139 c-1 -17 -64 -79 -100 -99 -12 -6 -19 -16 -15 -22 4 -6 9
-6 13 -1 3 5 20 19 38 31 39 28 76 78 70 95 -4 7 -6 6 -6 -4z"/>
<path d="M6200 3006 c0 -2 8 -10 18 -17 15 -13 16 -12 3 4 -13 16 -21 21 -21
13z"/>
<path d="M3810 2988 c0 -21 -33 -171 -46 -211 -11 -33 -13 -52 -6 -59 11 -11
35 61 48 139 3 24 10 41 14 38 7 -4 1 86 -6 94 -2 2 -4 2 -4 -1z"/>
<path d="M6290 2947 c14 -8 153 -45 310 -81 157 -37 383 -92 504 -122 210 -52
281 -64 261 -45 -6 5 -163 43 -350 85 -187 42 -358 81 -380 86 -22 5 -71 17
-110 25 -97 23 -216 52 -240 60 -13 4 -11 1 5 -8z"/>
<path d="M3836 2850 c11 -42 24 -73 29 -68 3 3 -4 25 -15 49 -11 24 -17 33
-14 19z"/>
<path d="M7269 2653 c-13 -16 -12 -17 4 -4 9 7 17 15 17 17 0 8 -8 3 -21 -13z"/>
<path d="M5353 2077 c-41 -28 -41 -37 0 -37 17 0 39 -4 47 -10 8 -5 19 -5 25
0 5 4 21 10 35 13 15 2 7 5 -20 6 -55 1 -78 18 -52 37 28 22 0 14 -35 -9z"/>
</g>
</svg>
