<?xml version="1.0" standalone="no"?>
<!DOCTYPE svg PUBLIC "-//W3C//DTD SVG 20010904//EN"
 "http://www.w3.org/TR/2001/REC-SVG-20010904/DTD/svg10.dtd">
<svg version="1.0" xmlns="http://www.w3.org/2000/svg"
 width="421.000000pt" height="421.000000pt" viewBox="0 0 421.000000 421.000000"
 preserveAspectRatio="xMidYMid meet">
<metadata>
Created by potrace 1.11, written by Peter Selinger 2001-2013
</metadata>
<g transform="translate(0.000000,421.000000) scale(0.100000,-0.100000)"
fill="#000000" stroke="none">
<path d="M2167 3674 c-3 -3 -56 -8 -119 -10 -120 -4 -134 -6 -213 -24 -45 -10
-133 -52 -196 -93 -14 -10 -49 -24 -78 -33 -112 -33 -204 -105 -249 -197 -35
-70 -39 -104 -27 -209 6 -58 5 -69 -9 -74 -9 -3 -16 -12 -16 -19 0 -7 -5 -15
-11 -17 -5 -2 -11 -10 -13 -18 -2 -8 -8 -27 -14 -43 -45 -109 -49 -441 -7
-612 8 -32 12 -61 9 -64 -2 -3 -19 9 -37 25 -47 44 -81 44 -123 -1 -19 -20
-32 -40 -29 -45 3 -5 1 -11 -4 -15 -10 -5 -10 -9 -11 -80 -1 -84 22 -207 66
-345 30 -98 66 -134 116 -119 17 5 34 7 36 5 2 -3 19 -50 38 -105 60 -179 114
-268 245 -400 75 -76 252 -221 269 -221 5 0 15 -6 22 -13 16 -16 119 -66 145
-70 10 -1 23 -6 29 -10 22 -13 189 -14 253 -1 191 40 521 262 632 425 34 51
119 201 120 214 4 31 14 45 28 40 68 -28 104 -6 152 95 7 14 12 28 11 33 -1 4
2 7 8 7 6 0 9 3 8 8 -1 4 3 17 10 30 7 12 10 22 6 22 -3 0 -1 6 5 14 7 8 14
22 16 32 3 11 13 44 24 75 47 131 42 230 -12 283 -26 25 -60 23 -106 -7 l-39
-26 10 37 c6 20 13 42 17 47 8 10 30 82 36 117 2 11 7 28 10 38 6 18 9 35 20
90 3 14 7 36 11 50 3 14 8 78 10 142 4 123 -9 191 -44 230 -8 10 -18 47 -21
87 -4 45 -13 76 -24 89 -13 15 -16 31 -13 72 8 93 -16 132 -176 289 -58 58
-75 71 -88 71 -5 0 -10 4 -10 8 0 5 -12 15 -27 23 -16 8 -30 17 -33 20 -5 5
-100 53 -110 55 -3 0 -12 3 -20 7 -26 10 -95 30 -95 28 0 -1 -12 2 -28 8 -43
17 -120 31 -242 45 -33 4 -72 9 -86 11 -15 2 -29 2 -32 -1z"/>
</g>
</svg>
