<?xml version="1.0" encoding="UTF-8"?>
<svg width="140px" height="110px" viewBox="0 0 140 110" xmlns="http://www.w3.org/2000/svg" xmlns:xlink="http://www.w3.org/1999/xlink" version="1.1">
 <!-- Generated by Pixelmator Pro 2.0.8 -->
 <g id="Regular-L-copy">
  <path id="Path" d="M19.969 109.457 L121.189 109.457 C132.322 109.457 138.719 103.061 138.719 90.658 L138.719 21.029 C138.719 8.627 132.273 2.23 119.676 2.23 L18.504 2.23 C7.322 2.23 0.974 8.529 0.974 21.029 L0.974 90.658 C0.974 103.158 7.371 109.457 19.969 109.457 Z M62.351 59.75 L13.67 11.85 C15.281 10.922 17.332 10.482 19.773 10.482 L119.92 10.482 C122.459 10.482 124.558 10.971 126.219 11.996 L77.732 59.75 C74.998 62.484 72.459 63.607 70.017 63.607 67.576 63.607 65.037 62.387 62.351 59.75 Z M9.226 90.561 L9.226 21.029 C9.226 20.248 9.275 19.516 9.373 18.832 L47.41 56.137 9.422 93.295 C9.324 92.465 9.226 91.537 9.226 90.561 Z M130.467 21.078 L130.467 90.609 C130.467 91.488 130.418 92.27 130.271 93.002 L92.674 56.137 130.32 19.174 C130.418 19.76 130.467 20.443 130.467 21.078 Z M19.773 101.205 C17.527 101.205 15.623 100.814 14.06 100.033 L53.074 61.703 57.517 66.049 C61.766 70.248 65.867 71.908 70.017 71.908 74.168 71.908 78.269 70.248 82.517 66.049 L86.961 61.703 125.877 99.887 C124.265 100.766 122.264 101.205 119.92 101.205 Z" fill="#000000" fill-opacity="1" stroke="none"/>
 </g>
</svg>
